<svg xmlns="http://www.w3.org/2000/svg" width="3200" height="2800" viewBox="0 0 1600 1400"><title>Sommersa: Campanile district</title><desc>Source-based campaign map/ornament. Unspecified geometry remains proposed.</desc><style>text{font-family:Georgia,"Times New Roman",serif;fill:#173b3c}path,line,polyline{stroke-linecap:round;stroke-linejoin:round}</style><g id="base-terrain"><rect x="0" y="0" width="1600" height="1400" fill="#fcfaf4"></rect></g><g id="structures" data-map-width="1600" data-map-height="1400"><rect x="150" y="510" width="180" height="120" fill="#ecece3" stroke="#173b3c" stroke-width="6" data-room="2"></rect><rect x="460" y="90" width="160" height="90" fill="#ecece3" stroke="#173b3c" stroke-width="6" data-room="6"></rect><rect x="700" y="100" width="150" height="100" fill="#ecece3" stroke="#173b3c" stroke-width="6" data-room="7"></rect><rect x="910" y="70" width="170" height="140" fill="#ecece3" stroke="#173b3c" stroke-width="6" data-room="8"></rect><rect x="450" y="260" width="150" height="140" fill="#ecece3" stroke="#173b3c" stroke-width="6" data-room="9"></rect><rect x="740" y="320" width="150" height="120" fill="#ecece3" stroke="#173b3c" stroke-width="6" data-room="10"></rect><rect x="1010" y="270" width="110" height="140" fill="#ecece3" stroke="#173b3c" stroke-width="6" data-room="11"></rect><rect x="1030" y="470" width="100" height="110" fill="#ecece3" stroke="#173b3c" stroke-width="6" data-room="12"></rect><rect x="450" y="730" width="150" height="150" fill="#ecece3" stroke="#173b3c" stroke-width="6" data-room="13"></rect><rect x="750" y="700" width="150" height="120" fill="#ecece3" stroke="#173b3c" stroke-width="6" data-room="14"></rect><rect x="1000" y="680" width="160" height="90" fill="#ecece3" stroke="#173b3c" stroke-width="6" data-room="15"></rect><rect x="480" y="980" width="150" height="100" fill="#ecece3" stroke="#173b3c" stroke-width="6" data-room="16"></rect><rect x="710" y="1000" width="150" height="110" fill="#ecece3" stroke="#173b3c" stroke-width="6" data-room="17"></rect><rect x="1210" y="550" width="170" height="130" fill="#ecece3" stroke="#173b3c" stroke-width="6" data-room="19"></rect><rect x="1020" y="900" width="160" height="100" fill="#ecece3" stroke="#173b3c" stroke-width="6" data-room="20"></rect><rect x="1190" y="790" width="170" height="170" fill="#ecece3" stroke="#173b3c" stroke-width="6" data-room="21"></rect><rect x="250" y="1070" width="150" height="100" fill="#ecece3" stroke="#173b3c" stroke-width="6" data-room="22"></rect><rect x="700" y="1170" width="170" height="100" fill="#ecece3" stroke="#173b3c" stroke-width="6" data-room="24"></rect><rect x="1170" y="160" width="160" height="140" fill="#ecece3" stroke="#173b3c" stroke-width="6" data-room="25"></rect><rect x="1210" y="1140" width="150" height="100" fill="#ecece3" stroke="#173b3c" stroke-width="6" data-room="26"></rect><rect x="45" y="920" width="150" height="180" fill="#ecece3" stroke="#173b3c" stroke-width="6" data-room="27"></rect><rect x="55" y="1120" width="160" height="160" fill="#ecece3" stroke="#173b3c" stroke-width="6" data-room="28"></rect><rect x="950" y="1140" width="180" height="130" fill="#ecece3" stroke="#173b3c" stroke-width="6" data-room="29"></rect><rect x="50" y="400" width="240" height="100" fill="#ecece3" stroke="#173b3c" stroke-width="6" data-room="30"></rect><rect x="880" y="960" width="100" height="100" fill="#ecece3" stroke="#173b3c" stroke-width="6" data-room="31"></rect><rect x="800" y="470" width="220" height="180" fill="#cecec5" stroke="#173b3c" stroke-width="6" data-room="34"></rect><path d="M20,80 H1580 V1340 H20 V800 M20,710 V80" fill="none" stroke="#173b3c" stroke-width="14"></path><rect x="1200" y="30" width="350" height="1300" fill="#dcdbce" opacity="0.8"></rect><path d="M20,750 H410 L620,550 L830,510" fill="none" stroke="#bcbcaf" stroke-width="60"></path><circle cx="260" cy="230" r="145" fill="#afc0ba" stroke="#173b3c" stroke-width="3"></circle><circle cx="260" cy="230" r="55" fill="#c1d0b6" stroke="#173b3c" stroke-width="3" data-feature="oasis-island"></circle><rect x="252" y="202" width="16" height="43" fill="#cecec5" stroke="#173b3c" stroke-width="2" data-feature="waystone"></rect><path d="M717,460 L745,410 L773,460 Z" fill="#cecec5" stroke="#173b3c" stroke-width="2" data-feature="camp-tent"></path><path d="M747,675 L775,625 L803,675 Z" fill="#cecec5" stroke="#173b3c" stroke-width="2" data-feature="camp-tent"></path><path d="M1037,680 L1065,630 L1093,680 Z" fill="#cecec5" stroke="#173b3c" stroke-width="2" data-feature="camp-tent"></path><path d="M1012,445 L1040,395 L1068,445 Z" fill="#cecec5" stroke="#173b3c" stroke-width="2" data-feature="camp-tent"></path><path d="M687,580 L715,530 L743,580 Z" fill="#cecec5" stroke="#173b3c" stroke-width="2" data-feature="camp-tent"></path><path d="M1082,605 L1110,555 L1138,605 Z" fill="#cecec5" stroke="#173b3c" stroke-width="2" data-feature="camp-tent"></path><rect x="800" y="815" width="160" height="60" fill="#cecec5" stroke="#173b3c" stroke-width="2" data-feature="rubble"></rect><path d="M808,824 l9,-4 l7,8 l-11,5 Z" fill="none" stroke="#777970" stroke-width="1.4"></path><path d="M834,824 l9,-4 l7,8 l-11,5 Z" fill="none" stroke="#777970" stroke-width="1.4"></path><path d="M860,824 l9,-4 l7,8 l-11,5 Z" fill="none" stroke="#777970" stroke-width="1.4"></path><path d="M886,824 l9,-4 l7,8 l-11,5 Z" fill="none" stroke="#777970" stroke-width="1.4"></path><path d="M912,824 l9,-4 l7,8 l-11,5 Z" fill="none" stroke="#777970" stroke-width="1.4"></path><path d="M938,824 l9,-4 l7,8 l-11,5 Z" fill="none" stroke="#777970" stroke-width="1.4"></path><path d="M808,843 l9,-4 l7,8 l-11,5 Z" fill="none" stroke="#777970" stroke-width="1.4"></path><path d="M834,843 l9,-4 l7,8 l-11,5 Z" fill="none" stroke="#777970" stroke-width="1.4"></path><path d="M860,843 l9,-4 l7,8 l-11,5 Z" fill="none" stroke="#777970" stroke-width="1.4"></path><path d="M886,843 l9,-4 l7,8 l-11,5 Z" fill="none" stroke="#777970" stroke-width="1.4"></path><path d="M912,843 l9,-4 l7,8 l-11,5 Z" fill="none" stroke="#777970" stroke-width="1.4"></path><path d="M938,843 l9,-4 l7,8 l-11,5 Z" fill="none" stroke="#777970" stroke-width="1.4"></path><path d="M808,862 l9,-4 l7,8 l-11,5 Z" fill="none" stroke="#777970" stroke-width="1.4"></path><path d="M834,862 l9,-4 l7,8 l-11,5 Z" fill="none" stroke="#777970" stroke-width="1.4"></path><path d="M860,862 l9,-4 l7,8 l-11,5 Z" fill="none" stroke="#777970" stroke-width="1.4"></path><path d="M886,862 l9,-4 l7,8 l-11,5 Z" fill="none" stroke="#777970" stroke-width="1.4"></path><path d="M912,862 l9,-4 l7,8 l-11,5 Z" fill="none" stroke="#777970" stroke-width="1.4"></path><path d="M938,862 l9,-4 l7,8 l-11,5 Z" fill="none" stroke="#777970" stroke-width="1.4"></path><line x1="575" y1="593" x2="615" y2="555" stroke="#fcfaf4" stroke-width="64"></line><line x1="575" y1="593" x2="615" y2="555" stroke="#bdb398" stroke-width="7"></line><circle cx="560" cy="610" r="10" fill="#cecec5" stroke="#173b3c" stroke-width="2" data-feature="inert-sphinx"></circle><circle cx="630" cy="535" r="10" fill="#cecec5" stroke="#173b3c" stroke-width="2" data-feature="inert-sphinx"></circle></g><g id="initial-state"></g></svg>
