<svg xmlns="http://www.w3.org/2000/svg" width="3600" height="3000" viewBox="0 0 1200 1000"><title>Lunar Shrine: summit plateau</title><desc>Source-led map. Plateau outline and ruin positions are proposed; southern Eastspire setting retained. The dashed chamber is below the plateau, not an open surface pool.</desc><style>text{font-family:Georgia,"Times New Roman",serif;fill:#173b3c}path,line,polyline{stroke-linecap:round;stroke-linejoin:round}</style><g id="base-terrain"><rect x="0" y="0" width="1200" height="1000" fill="#fcfaf4"></rect></g><g id="structures"><path d="M160,160 L780,90 L1080,210 L1110,740 L880,910 L220,880 L75,630 Z" fill="#d8d9d0" stroke="#173b3c" stroke-width="5"></path><path d="M280,290 H820 V720 H280 Z" fill="#f1efe5" stroke="#777970" stroke-width="8" stroke-dasharray="60 30"></path><circle cx="240" cy="240" r="30" fill="#f1efe5" stroke="#173b3c" stroke-width="4"></circle><circle cx="850" cy="240" r="30" fill="#f1efe5" stroke="#173b3c" stroke-width="4"></circle><circle cx="240" cy="730" r="30" fill="#f1efe5" stroke="#173b3c" stroke-width="4"></circle><circle cx="850" cy="730" r="30" fill="#f1efe5" stroke="#173b3c" stroke-width="4"></circle><rect x="855" y="440" width="100" height="35" fill="#d8d9d0" stroke="#173b3c" stroke-width="4" data-feature="runestone-10ft-wide"></rect><g id="stairs-865-515"><rect x="865" y="515" width="75" height="75" fill="#f1efe5" stroke="#173b3c" stroke-width="2"></rect><line x1="865" y1="527.5" x2="940" y2="527.5" stroke="#173b3c" stroke-width="2"></line><line x1="865" y1="540.0" x2="940" y2="540.0" stroke="#173b3c" stroke-width="2"></line><line x1="865" y1="552.5" x2="940" y2="552.5" stroke="#173b3c" stroke-width="2"></line><line x1="865" y1="565.0" x2="940" y2="565.0" stroke="#173b3c" stroke-width="2"></line><line x1="865" y1="577.5" x2="940" y2="577.5" stroke="#173b3c" stroke-width="2"></line></g><circle cx="905" cy="670" r="55" fill="none" stroke="#244c4c" stroke-width="3" stroke-dasharray="8 8"></circle><path d="M80,930 L240,815" fill="none" stroke="#f1efe5" stroke-width="55"></path></g></svg>
