<svg xmlns="http://www.w3.org/2000/svg" width="3600" height="4911" viewBox="0 0 1200 1637"><title>None Shall Pass: Silk Street</title><desc>Source-led map. The three initial sections and house geometry are proposed staging. Doors and windows are locked by default; player copy omits wave information.</desc><style>text{font-family:Georgia,"Times New Roman",serif;fill:#173b3c}path,line,polyline{stroke-linecap:round;stroke-linejoin:round}</style><text x="40" y="52" font-size="35" font-weight="bold">None Shall Pass: Silk Street</text><text x="40" y="91" font-size="23">GM key • proposed footprints • source facts retained</text><g transform="translate(0 125) scale(1)"><g id="base-terrain"><rect x="0" y="0" width="1200" height="1000" fill="#fcfaf4"></rect></g><g id="structures"><rect x="0" y="0" width="1200" height="1000" fill="#e9e4d5"></rect><rect x="100" y="120" width="250" height="240" fill="#d8d9d0" stroke="#173b3c" stroke-width="5"></rect><line x1="205.0" y1="360" x2="245.0" y2="360" stroke="#f1efe5" stroke-width="6"></line><rect x="500" y="120" width="250" height="240" fill="#d8d9d0" stroke="#173b3c" stroke-width="5"></rect><line x1="605.0" y1="360" x2="645.0" y2="360" stroke="#f1efe5" stroke-width="6"></line><rect x="900" y="120" width="220" height="240" fill="#d8d9d0" stroke="#173b3c" stroke-width="5"></rect><line x1="990.0" y1="360" x2="1030.0" y2="360" stroke="#f1efe5" stroke-width="6"></line><rect x="100" y="640" width="250" height="240" fill="#d8d9d0" stroke="#173b3c" stroke-width="5"></rect><line x1="205.0" y1="880" x2="245.0" y2="880" stroke="#f1efe5" stroke-width="6"></line><rect x="500" y="640" width="250" height="240" fill="#d8d9d0" stroke="#173b3c" stroke-width="5"></rect><line x1="605.0" y1="880" x2="645.0" y2="880" stroke="#f1efe5" stroke-width="6"></line><rect x="900" y="640" width="220" height="240" fill="#d8d9d0" stroke="#173b3c" stroke-width="5"></rect><line x1="990.0" y1="880" x2="1030.0" y2="880" stroke="#f1efe5" stroke-width="6"></line><rect x="425" y="450" width="50" height="50" fill="#b9a683" stroke="#173b3c" stroke-width="3" data-feature="proposed-barricade-section"></rect><rect x="425" y="500" width="50" height="50" fill="#b9a683" stroke="#173b3c" stroke-width="3" data-feature="proposed-barricade-section"></rect><rect x="425" y="550" width="50" height="50" fill="#b9a683" stroke="#173b3c" stroke-width="3" data-feature="proposed-barricade-section"></rect></g><g id="grid"><defs ><pattern id="five-foot-grid" width="50" height="50" patternUnits="userSpaceOnUse"><path d="M50,0 H0 V50" fill="none" stroke="#567a72" stroke-width="0.8" opacity="0.4"></path></pattern></defs><rect x="0" y="0" width="1200" height="1000" fill="url(#five-foot-grid)"></rect></g><g id="gm-secrets"><g id="token-190-500" data-kind="creature"><circle cx="190" cy="500" r="20" fill="#eee1c8" stroke="#244c4c" stroke-width="2"></circle><text x="190" y="507" font-size="22" text-anchor="middle" font-weight="bold">P</text></g><g id="token-1040-500" data-kind="creature"><circle cx="1040" cy="500" r="20" fill="#eee1c8" stroke="#244c4c" stroke-width="2"></circle><text x="1040" y="507" font-size="22" text-anchor="middle" font-weight="bold">C</text></g><g id="token-790-60" data-kind="creature"><circle cx="790" cy="60" r="20" fill="#eee1c8" stroke="#244c4c" stroke-width="2"></circle><text x="790" y="67" font-size="22" text-anchor="middle" font-weight="bold">N</text></g><g id="token-790-950" data-kind="creature"><circle cx="790" cy="950" r="20" fill="#eee1c8" stroke="#244c4c" stroke-width="2"></circle><text x="790" y="957" font-size="22" text-anchor="middle" font-weight="bold">S</text></g><g id="token-350-415" data-kind="fighter-ally"><circle cx="350" cy="415" r="20" fill="#eee1c8" stroke="#244c4c" stroke-width="2"></circle><text x="350" y="422" font-size="22" text-anchor="middle" font-weight="bold">F</text></g><g id="token-350-475" data-kind="fighter-ally"><circle cx="350" cy="475" r="20" fill="#eee1c8" stroke="#244c4c" stroke-width="2"></circle><text x="350" y="482" font-size="22" text-anchor="middle" font-weight="bold">F</text></g><g id="token-350-535" data-kind="fighter-ally"><circle cx="350" cy="535" r="20" fill="#eee1c8" stroke="#244c4c" stroke-width="2"></circle><text x="350" y="542" font-size="22" text-anchor="middle" font-weight="bold">F</text></g><g id="token-350-595" data-kind="fighter-ally"><circle cx="350" cy="595" r="20" fill="#eee1c8" stroke="#244c4c" stroke-width="2"></circle><text x="350" y="602" font-size="22" text-anchor="middle" font-weight="bold">F</text></g></g></g><g id="labels"><text x="45" y="1160" font-size="24">P Allies left / west; attackers right / east.</text><text x="45" y="1201" font-size="24">C Centre. N North. S South bypass routes.</text><text x="45" y="1242" font-size="24">Four fighter allies at the barricade.</text><text x="45" y="1283" font-size="24">Each PC may add one 5-ft barricade section.</text><text x="45" y="1324" font-size="24">Sections: 5 ft wide/high, 3 ft thick.</text><text x="45" y="1365" font-size="24">Ten minutes’ preparation; waves at rounds 1, 4, 7.</text><text x="45" y="1406" font-size="24">The road continues toward Market Cross and the Temple.</text></g><text x="45" y="1487" font-size="23">Each grid square = 5 ft.</text><text x="45" y="1525" font-size="22">The three initial sections and house geometry are proposed staging.</text><text x="45" y="1561.9599999999998" font-size="22">Doors and windows are locked by default; player copy omits wave information.</text></svg>
