<svg xmlns="http://www.w3.org/2000/svg" width="3200" height="2800" viewBox="0 0 1600 1400"><title>The Doge’s tent: court and guards</title><desc>Source-based campaign map/ornament. Unspecified geometry remains proposed.</desc><style>text{font-family:Georgia,"Times New Roman",serif;fill:#173b3c}path,line,polyline{stroke-linecap:round;stroke-linejoin:round}</style><g id="base-terrain"><rect x="0" y="0" width="1600" height="1400" fill="#fcfaf4"></rect></g><g id="structures" data-map-width="1600" data-map-height="1400"><path d="M270,220 L1330,220 L1430,1060 L1150,1260 H450 L170,1060 Z" fill="#ddd4c9" stroke="#173b3c" stroke-width="6" data-room="tent"></path><path d="M800,220 V1220 M270,220 L1330,1060 M1330,220 L270,1060" fill="none" stroke="#bcab7d" stroke-width="3"></path><rect x="660" y="380" width="290" height="180" fill="#c9c2af" stroke="#173b3c" stroke-width="2" data-feature="ducal-platform"></rect><rect x="660" y="495" width="100" height="70" fill="#ecece3" stroke="#173b3c" stroke-width="2"></rect><line x1="660" y1="505.0" x2="760" y2="505.0" stroke="#173b3c" stroke-width="2"></line><line x1="660" y1="515.0" x2="760" y2="515.0" stroke="#173b3c" stroke-width="2"></line><line x1="660" y1="525.0" x2="760" y2="525.0" stroke="#173b3c" stroke-width="2"></line><line x1="660" y1="535.0" x2="760" y2="535.0" stroke="#173b3c" stroke-width="2"></line><line x1="660" y1="545.0" x2="760" y2="545.0" stroke="#173b3c" stroke-width="2"></line><line x1="660" y1="555.0" x2="760" y2="555.0" stroke="#173b3c" stroke-width="2"></line><rect x="800" y="405" width="80" height="80" fill="#c9c2af" stroke="#173b3c" stroke-width="2" data-feature="ducal-throne"></rect><circle cx="850" cy="360" r="45" fill="#a98282" stroke="#173b3c" stroke-width="3" data-feature="ruby-mirror"></circle><rect x="630" y="470" width="40" height="80" fill="#b8ac89" stroke="#173b3c" stroke-width="3" data-feature="winged-lion-base"></rect><rect x="1000" y="470" width="40" height="80" fill="#b8ac89" stroke="#173b3c" stroke-width="3" data-feature="winged-lion-base"></rect><rect x="640" y="990" width="320" height="160" fill="none" stroke="#173b3c" stroke-width="3" data-feature="proposed-antechamber"></rect><line x1="730" y1="1260" x2="870" y2="1260" stroke="#fcfaf4" stroke-width="12" data-feature="tent-entrance"></line></g><g id="grid"><defs ><pattern id="five-foot-grid" width="50" height="50" patternUnits="userSpaceOnUse"><path d="M50,0 H0 V50" fill="none" stroke="#567a72" stroke-width="0.8" opacity="0.4"></path></pattern></defs><rect x="0" y="0" width="1600" height="1400" fill="url(#five-foot-grid)"></rect></g><g id="initial-state"></g><g id="hazards"></g><g id="stage-changes"></g><g id="gm-secrets"><circle cx="845" cy="450" r="30" fill="#fcfaf4" stroke="#244c4c" stroke-width="2"></circle><text x="845" y="460" font-size="32" text-anchor="middle" font-weight="bold" data-key="D">D</text><circle cx="1080" cy="520" r="30" fill="#fcfaf4" stroke="#244c4c" stroke-width="2"></circle><text x="1080" y="530" font-size="32" text-anchor="middle" font-weight="bold" data-key="F">F</text><circle cx="800" cy="680" r="30" fill="#fcfaf4" stroke="#244c4c" stroke-width="2"></circle><text x="800" y="690" font-size="32" text-anchor="middle" font-weight="bold" data-key="T">T</text><circle cx="700" cy="1230" r="30" fill="#fcfaf4" stroke="#244c4c" stroke-width="2"></circle><text x="700" y="1240" font-size="32" text-anchor="middle" font-weight="bold" data-key="C">C</text><circle cx="900" cy="1230" r="30" fill="#fcfaf4" stroke="#244c4c" stroke-width="2"></circle><text x="900" y="1240" font-size="32" text-anchor="middle" font-weight="bold" data-key="C">C</text><circle cx="380" cy="420" r="30" fill="#fcfaf4" stroke="#244c4c" stroke-width="2"></circle><text x="380" y="430" font-size="32" text-anchor="middle" font-weight="bold" data-key="Y">Y</text><circle cx="420" cy="600" r="30" fill="#fcfaf4" stroke="#244c4c" stroke-width="2"></circle><text x="420" y="610" font-size="32" text-anchor="middle" font-weight="bold" data-key="Y">Y</text><circle cx="380" cy="800" r="30" fill="#fcfaf4" stroke="#244c4c" stroke-width="2"></circle><text x="380" y="810" font-size="32" text-anchor="middle" font-weight="bold" data-key="Y">Y</text><circle cx="470" cy="940" r="30" fill="#fcfaf4" stroke="#244c4c" stroke-width="2"></circle><text x="470" y="950" font-size="32" text-anchor="middle" font-weight="bold" data-key="Y">Y</text><circle cx="1220" cy="420" r="30" fill="#fcfaf4" stroke="#244c4c" stroke-width="2"></circle><text x="1220" y="430" font-size="32" text-anchor="middle" font-weight="bold" data-key="Y">Y</text><circle cx="1180" cy="600" r="30" fill="#fcfaf4" stroke="#244c4c" stroke-width="2"></circle><text x="1180" y="610" font-size="32" text-anchor="middle" font-weight="bold" data-key="Y">Y</text><circle cx="1220" cy="800" r="30" fill="#fcfaf4" stroke="#244c4c" stroke-width="2"></circle><text x="1220" y="810" font-size="32" text-anchor="middle" font-weight="bold" data-key="Y">Y</text><circle cx="1130" cy="940" r="30" fill="#fcfaf4" stroke="#244c4c" stroke-width="2"></circle><text x="1130" y="950" font-size="32" text-anchor="middle" font-weight="bold" data-key="Y">Y</text><rect x="560" y="280" width="490" height="380" rx="100" fill="none" stroke="#244c4c" stroke-width="3" stroke-dasharray="10 10" data-feature="antimagic-platform-plus10ft"></rect></g></svg>
